<?xml version="1.0" standalone="no"?>
<!DOCTYPE svg PUBLIC "-//W3C//DTD SVG 20010904//EN"
 "http://www.w3.org/TR/2001/REC-SVG-20010904/DTD/svg10.dtd">
<svg version="1.0" xmlns="http://www.w3.org/2000/svg"
 width="7500.000000pt" height="2500.000000pt" viewBox="0 0 7500.000000 2500.000000"
 preserveAspectRatio="xMidYMid meet">

<g transform="translate(0.000000,2500.000000) scale(0.100000,-0.100000)"
fill="#000000" stroke="none">
<path d="M0 12500 l0 -12500 37500 0 37500 0 0 12500 0 12500 -19022 -2
c-10463 -1 -18951 -5 -18863 -9 88 -4 259 -10 380 -13 269 -7 358 -12 500 -31
61 -7 225 -17 365 -20 140 -4 282 -9 315 -11 33 -3 119 -10 190 -16 72 -5 160
-9 198 -9 37 1 67 -2 67 -6 0 -5 37 -8 83 -9 45 0 118 -4 162 -8 64 -7 76 -10
63 -20 -13 -10 -8 -12 29 -14 25 -1 58 -8 74 -16 16 -8 29 -10 29 -5 0 12 57
12 65 0 3 -5 -5 -12 -17 -14 -13 -2 3 -5 36 -6 32 0 76 -6 98 -13 34 -10 44
-9 71 7 19 11 32 14 34 8 2 -6 14 -9 26 -6 21 4 22 4 3 -11 -11 -9 -34 -17
-50 -17 -28 -2 -28 -2 -6 -6 106 -20 151 -45 90 -50 -101 -9 -130 -17 -130
-37 0 -6 -19 -24 -43 -39 -72 -47 -141 -97 -163 -117 -12 -11 -29 -20 -38 -20
-9 0 -16 -4 -16 -10 0 -5 -5 -10 -11 -10 -6 0 -19 -10 -30 -22 -10 -13 -18
-18 -19 -12 0 6 11 21 25 34 14 13 25 30 25 37 0 8 4 12 9 8 5 -3 12 -1 15 4
3 5 -1 11 -9 15 -8 3 -17 1 -20 -3 -2 -5 -19 -11 -35 -13 -25 -4 -30 -2 -25
11 11 28 10 35 -6 38 -9 2 -20 -7 -27 -22 -7 -14 -16 -24 -21 -20 -5 3 -12 1
-16 -5 -3 -5 -14 -10 -24 -10 -10 0 -26 -9 -37 -21 -10 -11 -26 -18 -36 -16
-10 3 -16 0 -15 -7 1 -6 -5 -11 -13 -12 -8 -1 -26 -6 -40 -11 -14 -6 -29 -8
-34 -5 -5 3 -7 1 -4 -4 3 -5 0 -15 -8 -22 -8 -7 -14 -9 -14 -5 -1 4 -6 -1 -13
-12 -7 -11 -17 -20 -23 -20 -11 0 -35 -16 -107 -72 -31 -24 -44 -29 -54 -21
-8 6 -16 8 -20 4 -3 -3 -1 -6 5 -6 16 0 15 -26 0 -28 -7 0 -24 -4 -37 -8 -19
-5 -22 -4 -16 6 6 10 4 12 -9 7 -10 -4 -52 -19 -94 -33 -42 -15 -86 -33 -97
-40 -11 -8 -25 -14 -32 -14 -18 0 -83 -46 -76 -54 4 -3 -1 -6 -10 -6 -10 0
-17 -4 -17 -8 0 -9 -86 -72 -99 -72 -5 0 -11 -7 -15 -15 -3 -8 -14 -15 -25
-15 -11 0 -34 -14 -52 -31 -18 -17 -37 -28 -46 -25 -8 3 -12 2 -8 -3 10 -18
-249 -121 -303 -121 -13 0 -21 -3 -19 -7 3 -5 -11 -9 -31 -10 -20 -1 -38 -7
-40 -12 -5 -16 -32 14 -32 36 -1 17 -1 17 -14 0 -13 -17 -40 -24 -111 -30 -16
-2 -46 -10 -65 -19 -89 -40 -123 -51 -160 -50 -21 1 -42 -3 -45 -8 -3 -6 2
-10 12 -11 12 0 8 -5 -12 -14 -26 -11 -31 -11 -45 5 -15 17 -20 17 -80 3 -69
-15 -108 -32 -80 -33 8 -1 -11 -15 -44 -31 -43 -23 -61 -27 -66 -19 -4 7 -13
9 -19 6 -6 -4 -9 -12 -6 -17 4 -5 -6 -9 -20 -9 -17 0 -24 -4 -19 -12 5 -8 -4
-9 -34 -4 -32 5 -42 3 -42 -8 0 -14 -49 -39 -83 -41 -11 -1 -25 -8 -31 -16 -6
-8 -20 -13 -30 -11 -14 3 -17 0 -13 -12 3 -8 1 -18 -5 -22 -7 -4 -8 -3 -4 4
10 17 -19 15 -36 -1 -7 -8 -20 -16 -28 -20 -12 -4 -11 -6 3 -6 9 -1 17 -6 17
-12 0 -8 -13 -10 -37 -6 -23 4 -33 3 -24 -2 11 -7 7 -12 -15 -24 -16 -8 -35
-13 -42 -11 -7 1 -8 0 -2 -3 15 -7 12 -23 -5 -23 -8 0 -23 -4 -33 -9 -9 -5
-29 -14 -45 -22 -19 -9 -24 -15 -15 -21 9 -5 7 -8 -8 -8 -32 0 -74 -24 -71
-40 1 -11 -7 -14 -33 -13 -33 3 -34 2 -15 -13 19 -15 19 -15 -5 -9 -14 3 -38
2 -53 -4 -17 -7 -28 -7 -32 -1 -4 6 -14 10 -23 9 -14 0 -13 -2 3 -8 15 -6 9
-10 -29 -15 -34 -5 -45 -10 -35 -16 7 -5 11 -10 9 -12 -25 -16 -52 -28 -64
-28 -8 0 -16 -6 -19 -14 -3 -8 -21 -17 -39 -21 -18 -4 -36 -12 -39 -17 -3 -5
-22 -10 -42 -11 -20 -1 -37 -7 -37 -13 0 -13 -43 -44 -60 -44 -6 0 -29 -9 -53
-19 -23 -11 -58 -22 -77 -25 -32 -6 -33 -5 -10 5 15 7 20 13 13 16 -7 2 -56
-12 -108 -31 -53 -20 -104 -36 -113 -36 -10 0 -27 -7 -38 -15 -10 -8 -29 -15
-42 -15 -13 0 -20 -4 -17 -10 3 -5 2 -10 -4 -10 -5 0 -18 -3 -28 -6 -15 -5
-15 -4 -3 5 13 9 13 11 -2 11 -10 0 -18 -7 -18 -15 0 -8 -8 -15 -19 -15 -10 0
-24 -7 -31 -14 -12 -16 -72 -39 -105 -41 -40 -3 -145 -28 -145 -35 0 -10 -78
-32 -89 -25 -10 6 -155 -57 -164 -72 -3 -5 3 -10 14 -10 10 -1 19 2 19 6 0 11
59 35 66 28 3 -3 -9 -13 -28 -22 -18 -10 -42 -25 -52 -34 -11 -9 -16 -10 -12
-3 4 6 3 12 -3 12 -5 0 -16 3 -24 6 -12 4 -14 0 -10 -15 6 -24 8 -23 -70 -26
-32 -1 -62 -6 -65 -11 -4 -5 -24 -18 -44 -28 -21 -11 -38 -22 -38 -26 0 -4
-13 -10 -30 -13 -16 -4 -53 -22 -82 -41 -50 -33 -57 -35 -122 -31 -64 3 -71 1
-115 -28 -25 -18 -64 -41 -86 -52 -22 -11 -61 -32 -86 -47 -26 -14 -50 -25
-53 -22 -3 2 -2 -2 4 -8 14 -17 12 -28 -5 -28 -9 0 -18 -7 -21 -15 -4 -8 -12
-15 -19 -15 -8 0 -17 -5 -21 -12 -4 -7 -3 -8 4 -4 7 4 12 4 12 -1 0 -4 -50 -8
-112 -8 -80 0 -112 -3 -115 -12 -3 -7 2 -13 11 -13 9 0 16 5 16 10 0 6 5 10
11 10 5 0 8 -4 5 -9 -4 -5 0 -12 6 -14 7 -3 2 -6 -11 -6 -15 -1 -21 -6 -18
-15 4 -9 -4 -16 -21 -19 -35 -7 -40 0 -16 18 10 8 14 15 8 15 -6 0 -17 -7 -24
-15 -7 -9 -29 -15 -51 -15 -24 0 -41 -6 -47 -15 -4 -9 -18 -17 -31 -18 -21 -1
-21 -2 -5 -14 17 -12 17 -13 -1 -13 -18 0 -91 -68 -87 -82 1 -4 -6 -9 -16 -12
-10 -3 -41 -21 -70 -40 -29 -18 -74 -39 -100 -46 -26 -7 -54 -21 -63 -31 -9
-10 -19 -16 -21 -14 -2 3 -17 -9 -33 -25 -30 -31 -58 -42 -34 -13 13 15 12 15
-8 3 -12 -8 -20 -17 -17 -21 2 -4 -2 -10 -8 -12 -10 -4 -9 -8 2 -16 12 -9 11
-11 -9 -11 -18 0 -21 -3 -13 -12 8 -10 -5 -12 -64 -10 l-74 4 10 -26 c7 -19 6
-25 -3 -23 -7 1 -12 -8 -11 -22 1 -20 -1 -21 -10 -9 -7 9 -15 11 -21 6 -52
-45 -153 -109 -141 -89 5 7 -1 11 -14 11 -13 0 -24 -8 -27 -20 -3 -12 -14 -20
-25 -20 -16 0 -18 -3 -9 -14 9 -10 7 -17 -6 -27 -10 -8 -14 -9 -10 -2 5 8 1
11 -12 10 -12 -1 -17 -6 -13 -16 4 -10 1 -12 -7 -6 -8 4 -17 2 -22 -6 -14 -23
-10 -32 9 -18 16 13 16 13 -1 -7 -19 -23 -22 -24 -92 -28 -44 -2 -50 -5 -49
-24 1 -13 -5 -22 -13 -22 -8 0 -11 5 -7 11 4 7 -1 7 -15 -1 -18 -9 -20 -14
-10 -26 10 -12 5 -14 -31 -14 -36 0 -47 -5 -73 -35 -16 -19 -33 -35 -38 -35
-10 0 -102 -97 -108 -113 -2 -7 -10 -18 -17 -25 -8 -7 -17 -19 -21 -27 -5 -8
-28 -15 -53 -17 -34 -2 -51 -10 -77 -35 -33 -34 -63 -43 -63 -20 0 6 -14 -3
-31 -21 -16 -18 -27 -37 -24 -43 4 -5 3 -9 -2 -8 -4 1 -11 0 -15 -1 -10 -3
-25 -7 -35 -9 -5 -1 -1 -6 7 -12 12 -8 11 -9 -6 -5 -14 4 -29 -3 -49 -24 -16
-16 -34 -30 -39 -30 -14 0 -96 -75 -96 -87 0 -5 -12 -20 -27 -34 -14 -13 -23
-18 -19 -11 4 6 5 12 2 12 -8 0 -46 -38 -46 -46 0 -10 -44 -43 -59 -44 -8 0
-11 6 -7 18 6 16 5 16 -8 0 -7 -10 -20 -18 -28 -18 -9 0 -21 -7 -28 -15 -7 -8
-21 -15 -31 -15 -20 0 -43 -33 -31 -44 3 -4 -1 -4 -10 -1 -13 5 -21 -2 -32
-27 -8 -18 -15 -27 -15 -21 -1 9 -11 6 -33 -7 -18 -11 -40 -23 -48 -26 -8 -4
-23 -14 -32 -22 -14 -12 -25 -13 -62 -3 -62 15 -86 14 -86 -5 0 -8 -7 -23 -16
-31 -13 -13 -33 -15 -126 -10 -70 4 -122 13 -142 23 -17 8 -55 18 -83 21 -49
5 -53 4 -53 -16 0 -40 -26 -39 -112 5 -14 8 -34 14 -44 14 -29 0 -84 23 -84
36 0 15 -114 27 -119 13 -2 -6 -14 -15 -28 -20 -27 -10 -120 12 -160 38 -21
14 -25 12 -77 -40 -51 -52 -96 -79 -96 -59 0 5 -12 14 -27 19 -81 28 -133 43
-154 43 l-22 0 24 27 c13 14 -22 -15 -79 -65 -57 -51 -137 -118 -178 -149
l-74 -57 -92 -1 c-66 -1 -126 -9 -205 -29 -62 -15 -118 -26 -124 -24 -6 2 30
25 80 51 51 26 158 85 239 131 81 46 184 102 230 125 47 24 80 46 76 52 -3 6
0 10 7 8 27 -3 40 1 33 12 -4 7 0 9 12 5 11 -3 26 -1 34 5 12 9 12 10 -3 5
-10 -3 -28 -1 -39 5 -12 6 -18 7 -14 1 7 -12 -21 -25 -35 -16 -5 3 -8 0 -7 -8
2 -9 -10 -13 -40 -13 -27 0 -42 -4 -42 -12 0 -16 -10 -16 -33 1 -14 11 -15 15
-5 19 16 7 -45 1 -91 -9 -21 -4 -32 -3 -28 2 3 5 -2 10 -11 11 -51 6 -80 16
-76 28 3 7 -6 15 -23 18 -15 4 -35 11 -43 17 -13 9 -13 11 0 19 8 6 11 13 7
18 -5 4 -12 2 -16 -5 -5 -8 -26 -13 -52 -12 -24 1 -53 -1 -65 -5 -13 -4 -27
-1 -37 9 -8 9 -32 16 -51 16 -20 0 -36 4 -36 8 0 11 -40 29 -82 37 -26 5 -44
-1 -89 -28 -31 -19 -66 -37 -79 -40 -27 -7 -52 2 -43 16 4 6 -3 8 -18 4 -13
-3 -33 -2 -43 2 -17 7 -18 8 -3 14 26 10 21 45 -5 49 -13 2 -27 13 -33 25 -5
12 -16 24 -25 27 -16 6 -52 28 -60 37 -3 3 -21 14 -40 25 -19 10 -38 23 -42
29 -6 9 -52 -12 -119 -53 -24 -14 -33 -14 -83 -2 -31 7 -56 17 -56 21 0 5 -17
11 -37 14 -21 3 -51 12 -68 20 -16 8 -82 30 -145 50 -150 48 -162 53 -155 65
7 11 -7 9 -82 -10 -19 -5 -35 -4 -39 1 -3 5 0 9 5 9 23 0 9 17 -34 44 -40 26
-45 33 -45 67 0 20 -6 40 -12 42 -10 4 -10 6 0 6 7 1 11 5 7 11 -3 5 -12 7
-19 4 -9 -3 -17 4 -21 17 -9 27 -29 49 -45 49 -7 0 -25 9 -41 21 -16 11 -41
22 -54 24 -14 1 -31 8 -39 14 -8 7 -22 11 -32 9 -13 -2 -20 6 -25 31 -4 18
-13 37 -21 42 -10 7 -10 9 0 9 7 0 10 5 7 10 -3 6 -15 10 -26 10 -10 0 -19 6
-19 13 0 8 -12 12 -37 9 -51 -4 -89 17 -85 47 3 32 -37 101 -60 101 -21 0 -21
1 -7 -39 6 -17 15 -31 20 -31 5 0 9 -7 9 -16 0 -23 -24 -11 -28 14 -2 12 -10
22 -18 22 -8 0 -14 5 -14 10 0 18 -60 70 -80 70 -11 0 -19 7 -20 18 0 9 -2 35
-3 57 -2 43 -5 44 -87 35 -45 -4 -60 0 -60 18 0 14 -2 15 -10 2 -7 -11 -10
-11 -10 -2 0 7 -4 11 -9 8 -4 -3 -20 0 -35 7 -22 10 -25 17 -21 44 4 27 2 30
-15 26 -11 -3 -32 -2 -47 2 -27 6 -27 7 -9 21 17 12 18 14 3 14 -9 0 -17 4
-17 8 0 13 -239 125 -254 119 -8 -3 -17 1 -20 10 -4 9 -14 13 -26 10 -15 -4
-20 0 -20 14 0 13 -7 19 -24 19 -15 0 -26 7 -29 20 -3 11 -11 20 -19 20 -10 0
-10 -3 2 -11 12 -9 12 -10 -3 -5 -10 3 -21 6 -23 6 -3 0 -3 4 0 8 2 4 -10 9
-27 10 -18 2 -33 7 -35 12 -2 6 -8 10 -14 10 -6 0 -8 -7 -4 -15 9 -26 -1 -17
-24 19 -14 24 -35 40 -68 52 -52 19 -74 34 -51 34 9 0 5 8 -11 20 -15 12 -18
18 -7 14 9 -3 17 -1 17 5 0 6 -10 11 -22 10 -13 0 -39 3 -58 6 -21 3 -30 2
-25 -4 6 -5 23 -11 40 -13 19 -2 31 -9 33 -21 4 -17 2 -17 -26 -3 -17 9 -55
25 -86 37 -31 11 -56 24 -56 29 0 5 -9 12 -20 15 -11 4 -17 11 -14 17 4 6 -1
8 -16 3 -15 -5 -20 -4 -16 4 7 11 -6 19 -36 25 -38 7 -98 30 -98 38 0 4 -9 8
-19 8 -11 0 -21 5 -23 11 -2 7 -28 18 -58 26 -30 7 -57 18 -60 23 -3 6 -28 14
-54 19 -26 5 -53 14 -59 20 -6 6 -19 11 -29 11 -10 0 -18 4 -18 9 0 13 -53 20
-73 9 -23 -12 -69 -2 -93 20 -11 10 -55 28 -99 41 -44 13 -84 27 -90 31 -5 4
-25 11 -43 15 -30 6 -216 79 -307 120 -22 10 -60 27 -85 37 -25 11 -57 26 -72
34 -14 8 -33 14 -41 14 -9 0 -23 8 -33 18 -10 9 -20 16 -23 15 -10 -4 -42 8
-111 40 -36 17 -72 32 -80 33 -8 2 -16 8 -18 13 -2 6 -15 11 -28 11 -13 0 -24
4 -24 8 0 4 -20 14 -45 21 -25 7 -45 17 -45 22 0 5 -12 12 -28 15 -15 4 -58
22 -95 40 -37 19 -73 34 -80 34 -26 0 -224 86 -249 109 -32 28 -35 41 -10 42
14 0 14 2 -3 9 -11 5 -15 9 -10 10 6 1 1 6 -10 11 -15 7 -11 8 18 5 34 -4 36
-3 22 11 -10 10 -25 13 -43 9 -46 -10 -146 -12 -120 -3 13 5 31 13 41 18 9 5
27 8 40 6 12 -2 16 -2 10 0 -18 6 -16 23 2 23 31 0 14 20 -17 21 -18 0 -51 6
-73 13 l-40 13 35 16 c32 16 33 17 6 12 -15 -3 -42 -8 -60 -10 l-31 -5 32 10
c24 8 30 14 26 30 -3 11 -16 29 -29 39 -13 10 -24 23 -24 29 0 5 -6 12 -14 15
-7 3 -16 15 -19 26 -4 16 0 21 16 21 18 0 19 2 7 10 -11 8 -8 9 13 4 21 -5 27
-3 27 10 0 13 4 15 19 6 28 -15 49 -14 33 2 -14 14 -16 32 -2 23 5 -3 7 0 4 9
-3 9 -12 12 -21 9 -11 -4 -14 -2 -9 5 4 6 2 20 -3 31 -8 14 -8 21 2 24 8 4 7
6 -3 7 -8 0 -24 8 -35 16 -19 15 -19 15 10 13 40 -4 135 11 135 21 0 5 -10 12
-21 15 -17 6 -19 9 -8 17 11 7 11 11 2 15 -25 10 -12 23 23 23 22 0 33 4 29
11 -4 6 -14 8 -22 5 -8 -3 -11 -1 -8 4 3 6 18 10 33 10 36 1 11 15 -41 24 -21
4 -35 11 -31 17 3 6 20 7 37 4 24 -5 28 -4 17 4 -11 8 -5 11 28 11 29 0 41 4
36 11 -4 8 9 10 44 8 27 -2 48 -1 45 4 -2 4 14 7 36 7 47 0 48 3 22 37 -36 45
-14 57 102 56 9 0 17 4 17 9 0 4 -4 8 -8 8 -5 0 -9 7 -9 15 0 10 11 15 31 16
17 0 42 2 56 3 14 2 66 6 116 11 88 7 133 21 108 31 -7 3 -10 14 -7 24 3 12 0
20 -6 20 -7 0 -9 5 -6 10 9 14 41 12 57 -3 23 -23 56 -37 85 -36 17 1 21 3 10
6 -9 2 -15 9 -12 14 4 5 0 9 -7 10 -7 0 0 5 16 10 17 4 35 5 40 0 16 -11 64
-12 71 -1 3 6 -4 10 -17 11 -23 1 -23 1 2 9 14 4 34 8 45 9 16 1 17 -1 5 -9
-11 -7 3 -9 45 -9 45 1 53 3 30 8 l-30 7 30 8 c17 4 80 8 140 8 61 0 102 2 93
5 -10 2 -18 11 -18 19 0 12 21 14 124 12 68 -2 122 0 120 4 -8 13 62 25 114
20 35 -3 52 -1 52 7 0 6 19 11 48 11 35 0 43 3 32 11 -11 7 -3 9 32 7 33 -2
49 1 53 10 3 9 -1 11 -14 7 -14 -4 -19 -1 -17 10 2 15 25 17 172 22 129 4 172
8 180 19 7 8 29 14 56 14 56 0 95 18 90 43 -4 19 9 21 92 17 26 -1 93 1 148 5
93 7 99 9 95 27 -5 19 -2 19 69 13 47 -5 74 -4 74 3 0 10 115 36 141 31 8 -1
32 2 54 8 22 6 99 14 170 18 72 3 150 12 175 20 68 20 250 48 280 41 15 -2 46
2 70 10 34 12 53 13 92 4 28 -5 54 -7 60 -4 6 4 34 8 62 10 28 1 89 5 136 8
47 3 128 8 180 11 52 4 128 10 168 15 40 5 139 12 220 16 81 3 185 12 231 20
47 9 112 17 145 18 34 2 102 6 151 9 50 3 158 9 240 12 83 3 256 13 385 22
308 20 435 26 547 26 51 0 91 3 89 6 -2 3 103 7 233 9 130 2 250 6 266 8 17 3
82 7 145 9 63 2 189 8 280 14 91 5 370 10 620 9 250 0 502 2 560 6 102 6 406
12 1174 21 203 2 371 7 374 10 3 3 -7531 5 -16741 5 l-16747 0 0 -12500z
m26208 12113 c-10 -2 -26 -2 -35 0 -10 3 -2 5 17 5 19 0 27 -2 18 -5z m-1179
-202 c10 -7 7 -9 -12 -8 -14 1 -23 5 -20 10 6 9 15 9 32 -2z m-909 -181 c0 -5
-4 -10 -10 -10 -5 0 -10 5 -10 10 0 6 5 10 10 10 6 0 10 -4 10 -10z m14762 -7
c4 -13 -1 -18 -19 -18 -26 0 -29 5 -11 23 17 17 25 15 30 -5z m-15392 -264 c0
-22 -29 -40 -55 -33 -21 5 -23 9 -13 21 6 8 20 12 30 10 10 -3 18 -1 18 4 0 5
5 9 10 9 6 0 10 -5 10 -11z m-163 -5 c-3 -3 -12 -4 -19 -1 -8 3 -5 6 6 6 11 1
17 -2 13 -5z m60 -20 c-3 -3 -12 -4 -19 -1 -8 3 -5 6 6 6 11 1 17 -2 13 -5z
m16 -61 c-7 -2 -19 -2 -25 0 -7 3 -2 5 12 5 14 0 19 -2 13 -5z m-46 -9 c-3 -3
-12 -4 -19 -1 -8 3 -5 6 6 6 11 1 17 -2 13 -5z m14083 -174 c0 -5 -4 -10 -10
-10 -5 0 -10 5 -10 10 0 6 5 10 10 10 6 0 10 -4 10 -10z m-14145 -250 c-3 -5
-16 -10 -28 -10 -18 0 -19 2 -7 10 20 13 43 13 35 0z m80 -40 c7 -12 -2 -12
-30 0 -19 8 -19 9 2 9 12 1 25 -3 28 -9z m13432 -6 c-3 -3 -12 -4 -19 -1 -8 3
-5 6 6 6 11 1 17 -2 13 -5z m-13487 -124 c0 -13 -11 -13 -30 0 -12 8 -11 10 8
10 12 0 22 -4 22 -10z m203 3 c-7 -2 -19 -2 -25 0 -7 3 -2 5 12 5 14 0 19 -2
13 -5z m-250 -20 c-7 -2 -21 -2 -30 0 -10 3 -4 5 12 5 17 0 24 -2 18 -5z m82
-3 c3 -5 -1 -10 -10 -10 -9 0 -13 -4 -10 -10 3 -5 -1 -10 -10 -10 -9 0 -13 5
-10 10 3 6 0 10 -7 10 -9 0 -9 3 2 10 19 13 37 13 45 0z m41 -36 c17 -14 17
-15 1 -10 -10 3 -23 6 -28 6 -5 0 -9 5 -9 10 0 14 13 12 36 -6z m10334 -1128
c0 -3 -14 -15 -32 -27 -29 -21 -31 -14 -5 19 9 11 37 17 37 8z m-7222 -56 c-1
-22 5 -30 23 -30 19 0 49 -21 49 -34 0 -8 -42 0 -66 12 -11 5 -31 15 -45 22
-37 17 -33 40 7 37 18 -1 32 -4 32 -7z m99 -84 c0 -8 -6 -12 -14 -9 -7 3 -10
9 -7 14 8 14 21 11 21 -5z m81 -5 c10 -6 8 -10 -10 -14 -12 -4 -31 -7 -42 -7
-15 0 -16 3 -6 15 14 17 38 19 58 6z m6802 -29 c0 -4 -10 -13 -22 -21 -23 -14
-23 -14 -4 8 20 22 26 25 26 13z m-60 -56 c0 -2 -7 -7 -16 -10 -8 -3 -12 -2
-9 4 6 10 25 14 25 6z m-386 -201 c-6 -14 -44 -22 -44 -10 0 4 29 19 47 24 1
1 0 -6 -3 -14z m-5429 -385 c3 -5 1 -10 -4 -10 -6 0 -11 5 -11 10 0 6 2 10 4
10 3 0 8 -4 11 -10z m4375 -304 c0 -2 -8 -10 -17 -17 -16 -13 -17 -12 -4 4 13
16 21 21 21 13z m-2340 -356 c0 -5 -7 -10 -15 -10 -8 0 -15 5 -15 10 0 6 7 10
15 10 8 0 15 -4 15 -10z m-630 -349 c0 -4 12 -7 28 -5 27 4 27 4 2 -5 -38 -14
-50 -13 -50 4 0 8 5 15 10 15 6 0 10 -4 10 -9z"/>
<path d="M23440 23940 c0 -5 5 -10 11 -10 5 0 7 5 4 10 -3 6 -8 10 -11 10 -2
0 -4 -4 -4 -10z"/>
<path d="M33520 24992 c0 -4 21 -6 48 -4 82 5 89 9 20 11 -38 0 -68 -2 -68 -7z"/>
<path d="M33703 24993 c26 -2 68 -2 95 0 26 2 4 3 -48 3 -52 0 -74 -1 -47 -3z"/>
<path d="M33858 24993 c6 -2 18 -2 25 0 6 3 1 5 -13 5 -14 0 -19 -2 -12 -5z"/>
<path d="M35528 24993 c7 -3 16 -2 19 1 4 3 -2 6 -13 5 -11 0 -14 -3 -6 -6z"/>
<path d="M36218 24993 c7 -3 16 -2 19 1 4 3 -2 6 -13 5 -11 0 -14 -3 -6 -6z"/>
<path d="M36338 24993 c12 -2 32 -2 45 0 12 2 2 4 -23 4 -25 0 -35 -2 -22 -4z"/>
<path d="M36458 24993 c7 -3 16 -2 19 1 4 3 -2 6 -13 5 -11 0 -14 -3 -6 -6z"/>
<path d="M36708 24993 c17 -2 47 -2 65 0 17 2 3 4 -33 4 -36 0 -50 -2 -32 -4z"/>
<path d="M36888 24993 c12 -2 30 -2 40 0 9 3 -1 5 -23 4 -22 0 -30 -2 -17 -4z"/>
<path d="M23928 24143 c7 -3 16 -2 19 1 4 3 -2 6 -13 5 -11 0 -14 -3 -6 -6z"/>
<path d="M23756 24102 c-3 -5 8 -6 25 -4 16 2 29 6 29 8 0 8 -49 4 -54 -4z"/>
<path d="M23590 23980 c-12 -8 -11 -10 7 -10 12 0 25 5 28 10 8 13 -15 13 -35
0z"/>
<path d="M23673 23983 c9 -2 25 -2 35 0 9 3 1 5 -18 5 -19 0 -27 -2 -17 -5z"/>
<path d="M23440 23540 c0 -5 7 -10 15 -10 8 0 15 5 15 10 0 6 -7 10 -15 10 -8
0 -15 -4 -15 -10z"/>
<path d="M23628 23403 c7 -3 16 -2 19 1 4 3 -2 6 -13 5 -11 0 -14 -3 -6 -6z"/>
<path d="M23680 23380 c19 -13 30 -13 30 0 0 6 -10 10 -22 10 -19 0 -20 -2 -8
-10z"/>
<path d="M36270 23190 c-9 -6 -10 -10 -3 -10 6 0 15 5 18 10 8 12 4 12 -15 0z"/>
<path d="M25006 22723 c12 -2 24 -13 27 -24 3 -10 11 -19 19 -19 8 0 9 3 2 8
-6 4 -13 15 -17 25 -4 10 -16 16 -29 16 -22 -2 -22 -2 -2 -6z"/>
<path d="M34342 22482 c-15 -2 -22 -9 -18 -17 3 -8 0 -12 -7 -9 -7 2 -21 -2
-32 -10 -20 -15 -20 -15 3 -16 12 0 22 5 22 10 0 6 3 9 8 8 8 -3 58 30 51 35
-2 1 -14 1 -27 -1z"/>
<path d="M25745 22450 c3 -5 8 -10 11 -10 2 0 4 5 4 10 0 6 -5 10 -11 10 -5 0
-7 -4 -4 -10z"/>
<path d="M25920 22390 c-13 -8 -13 -10 2 -10 9 0 20 5 23 10 8 13 -5 13 -25 0z"/>
<path d="M25932 22361 c-11 -6 -10 -10 4 -15 10 -4 20 -3 23 2 3 5 13 12 21
15 9 3 5 6 -10 6 -14 0 -31 -3 -38 -8z"/>
<path d="M26100 22316 c0 -10 6 -13 15 -10 9 4 15 0 15 -9 0 -9 -8 -18 -17
-20 -14 -4 -15 -5 -2 -6 8 0 23 5 32 12 16 11 15 14 -13 30 -26 16 -30 16 -30
3z"/>
<path d="M34055 22280 c-3 -6 1 -7 9 -4 18 7 21 14 7 14 -6 0 -13 -4 -16 -10z"/>
<path d="M26160 22271 c0 -5 8 -11 18 -14 9 -2 26 -8 37 -12 15 -6 13 -2 -7
13 -27 23 -48 28 -48 13z"/>
<path d="M33625 22089 c-4 -6 -5 -12 -2 -15 2 -3 7 2 10 11 7 17 1 20 -8 4z"/>
<path d="M33345 21930 c-3 -6 1 -7 9 -4 18 7 21 14 7 14 -6 0 -13 -4 -16 -10z"/>
<path d="M33300 21900 c0 -5 7 -7 15 -4 8 4 15 8 15 10 0 2 -7 4 -15 4 -8 0
-15 -4 -15 -10z"/>
<path d="M27035 21814 c9 -9 23 -13 32 -9 15 5 15 7 3 15 -8 6 -23 10 -33 10
-17 0 -17 -1 -2 -16z"/>
<path d="M27047 21773 c-14 -13 -6 -33 13 -33 13 0 20 7 20 20 0 19 -20 27
-33 13z"/>
<path d="M27087 21726 c-4 -10 5 -16 34 -21 21 -4 39 -11 39 -16 0 -5 7 -9 15
-9 27 0 16 16 -26 38 -48 26 -55 27 -62 8z"/>
<path d="M27440 21516 c5 -14 7 -33 3 -42 -4 -12 -2 -15 8 -12 8 3 12 12 10
19 -2 8 -5 23 -6 33 -1 11 -7 22 -13 24 -9 3 -10 -3 -2 -22z"/>
<path d="M27897 21117 c-8 -6 -6 -7 5 -3 12 3 18 -2 20 -17 2 -15 13 -24 38
-30 19 -4 46 -11 59 -14 16 -4 22 -2 17 5 -3 6 0 13 6 16 7 3 1 4 -15 1 -15
-3 -27 -2 -26 2 5 33 -3 41 -47 45 -25 2 -51 -1 -57 -5z"/>
<path d="M28058 21043 c7 -3 16 -2 19 1 4 3 -2 6 -13 5 -11 0 -14 -3 -6 -6z"/>
<path d="M29313 20763 c9 -2 23 -2 30 0 6 3 -1 5 -18 5 -16 0 -22 -2 -12 -5z"/>
<path d="M29405 20731 c-17 -7 -15 -9 13 -13 35 -5 53 6 26 16 -9 3 -16 6 -17
5 -1 0 -11 -4 -22 -8z"/>
<path d="M29481 20697 c-9 -12 -6 -15 18 -19 22 -3 28 0 26 11 -3 21 -29 25
-44 8z"/>
<path d="M29588 20673 c7 -3 16 -2 19 1 4 3 -2 6 -13 5 -11 0 -14 -3 -6 -6z"/>
<path d="M29548 20663 c7 -3 16 -2 19 1 4 3 -2 6 -13 5 -11 0 -14 -3 -6 -6z"/>
<path d="M30195 20660 c-3 -5 1 -10 10 -10 9 0 13 5 10 10 -3 6 -8 10 -10 10
-2 0 -7 -4 -10 -10z"/>
<path d="M29980 20631 c0 -11 3 -22 8 -24 4 -3 7 6 7 19 0 13 -3 24 -7 24 -5
0 -8 -9 -8 -19z"/>
<path d="M30537 20634 c-8 -8 1 -24 14 -24 5 0 9 7 9 15 0 15 -12 20 -23 9z"/>
<path d="M30310 20610 c0 -5 7 -7 15 -4 8 4 15 8 15 10 0 2 -7 4 -15 4 -8 0
-15 -4 -15 -10z"/>
<path d="M30358 20603 c6 -2 18 -2 25 0 6 3 1 5 -13 5 -14 0 -19 -2 -12 -5z"/>
<path d="M31120 20591 c0 -12 -7 -24 -15 -27 -9 -4 -20 -15 -26 -25 -9 -18 -5
-19 56 -19 58 0 65 2 65 20 0 11 5 20 10 20 6 0 10 9 10 20 0 15 -7 20 -27 20
-16 0 -38 3 -50 6 -19 5 -23 2 -23 -15z"/>
<path d="M29918 20593 c7 -3 16 -2 19 1 4 3 -2 6 -13 5 -11 0 -14 -3 -6 -6z"/>
<path d="M30658 20593 c12 -2 32 -2 45 0 12 2 2 4 -23 4 -25 0 -35 -2 -22 -4z"/>
<path d="M29958 20583 c7 -3 16 -2 19 1 4 3 -2 6 -13 5 -11 0 -14 -3 -6 -6z"/>
</g>
</svg>
